<svg xmlns="http://www.w3.org/2000/svg" viewBox="0 0 64 64" fill="none">
  <defs>
    <linearGradient id="bg" x1="10" y1="8" x2="56" y2="58" gradientUnits="userSpaceOnUse">
      <stop stop-color="#132033" />
      <stop offset="1" stop-color="#0b1220" />
    </linearGradient>
    <linearGradient id="ring" x1="18" y1="18" x2="44" y2="46" gradientUnits="userSpaceOnUse">
      <stop stop-color="#60a5fa" />
      <stop offset="1" stop-color="#34d399" />
    </linearGradient>
    <linearGradient id="note" x1="34" y1="20" x2="47" y2="43" gradientUnits="userSpaceOnUse">
      <stop stop-color="#f97316" />
      <stop offset="1" stop-color="#fb7185" />
    </linearGradient>
  </defs>
  <rect x="4" y="4" width="56" height="56" rx="18" fill="url(#bg)" />
  <rect x="4.75" y="4.75" width="54.5" height="54.5" rx="17.25" stroke="#94a3b8" stroke-opacity="0.2" />
  <circle cx="24" cy="40" r="12" fill="#0f172a" stroke="url(#ring)" stroke-width="4" />
  <circle cx="24" cy="40" r="3.5" fill="#dbeafe" fill-opacity="0.95" />
  <path d="M40 18v18.5c-1.7-1.9-4.6-2.6-7.2-1.4C29.4 36.7 28 39 28 41.2c0 4.2 4.9 6.4 8.5 4.1 2.1-1.3 3.5-3.7 3.5-6.2V25.2l10-2.5v11.3c-1.7-1.8-4.6-2.5-7.2-1.3-3.4 1.6-4.8 5.8-2.1 8.8 2.8 3.1 8.2 2.4 10.4-1.4.6-1.1.9-2.3.9-3.6V17L40 18Z" fill="url(#note)" />
  <path d="M16 19.5c4.7-3.5 10.4-4.3 15.7-2.8" stroke="#60a5fa" stroke-linecap="round" stroke-width="2.5" opacity="0.8" />
  <path d="M15.5 24.5c3.3-2.3 7.1-3 10.8-2.2" stroke="#34d399" stroke-linecap="round" stroke-width="2.5" opacity="0.8" />
</svg>
